<svg width="53" height="68" viewBox="0 0 53 68" fill="none" xmlns="http://www.w3.org/2000/svg">
<path d="M10.2524 41.8629V39.0931C10.2524 35.8763 10.7388 33.1957 11.5498 30.7833L16.7397 16.1296C17.794 13.0915 18.6859 10.7683 21.9295 10.7683H29.8766C32.8769 10.7683 33.7692 13.0915 34.9853 16.2187L40.5807 30.7833C41.3915 33.1957 41.8781 35.8763 41.8781 39.0931V41.8629H10.2524ZM42.6891 57.1921V39.0931C42.6891 35.7869 42.2025 33.0171 41.3106 30.4258L35.7152 15.8615C34.4178 12.3766 33.4446 9.87488 29.8766 9.87488H21.9295C18.1993 9.87488 17.2263 12.4662 16.0099 15.7721L10.8201 30.4258C9.92801 33.0171 9.44141 35.7869 9.44141 39.0931V57.1921V58.1252H10.2524V57.1921V42.7565H41.8781V57.1921V58.1252H42.6891V57.1921Z" fill="white"/>
<path d="M30.9992 33.2456H20.5638L24.0223 20.9218C24.1038 20.7103 24.1847 20.5403 24.2592 20.413C24.3783 20.2098 24.4756 20.1175 24.5414 20.0735C24.5755 20.0509 24.6039 20.0381 24.6378 20.0279C24.6717 20.018 24.7121 20.0113 24.7678 20.0111H26.7951C26.8695 20.0111 26.9159 20.0228 26.9575 20.0393C27.0177 20.0655 27.0857 20.1069 27.1922 20.2444C27.2928 20.3758 27.4167 20.6 27.5414 20.9242L30.9992 33.2456ZM26.7951 19.0781H24.7678C24.119 19.0781 23.6326 19.5247 23.2271 20.5971L19.4158 34.1786H32.1474L28.3358 20.5971C27.9304 19.5247 27.4438 19.0781 26.7951 19.0781" fill="white"/>
<path d="M51.2848 62.9501C51.2848 65.1839 50.3927 66.1669 48.3654 66.1669H36.1206C33.9311 66.1669 32.9581 65.1839 32.9581 62.9501V50.4408H18.6049V62.9501C18.6049 65.1839 17.7128 66.1669 15.6856 66.1669H3.76504C1.73792 66.1669 0.845819 65.1839 0.845819 62.9501V39.3612C0.845819 35.7869 1.81882 31.3192 4.00834 25.0645L11.0633 4.78166C11.7121 2.72654 13.0095 1.83313 15.199 1.83313H37.0125C39.1209 1.83313 40.4185 2.72654 41.0672 4.78166L48.1221 25.0645C50.3116 31.3192 51.2848 35.7869 51.2848 39.3612V62.9501ZM48.9126 24.7299L41.8578 4.44784C41.6745 3.87413 41.4397 3.35704 41.142 2.90526C40.9153 2.56129 40.6522 2.25628 40.3562 1.99753C39.9122 1.60899 39.3966 1.32949 38.8355 1.15368C38.2738 0.977234 37.6666 0.900104 37.0129 0.899902H15.1994C14.5999 0.899902 14.0425 0.960641 13.5236 1.09708C13.1348 1.19971 12.7675 1.34546 12.4271 1.54035C11.9163 1.83187 11.4694 2.2366 11.1092 2.73441C10.7528 3.22517 10.48 3.80157 10.2736 4.44784L3.21879 24.7299C2.11537 27.8831 1.31283 30.5992 0.784091 32.9978C0.255521 35.3965 0.000182876 37.4802 0 39.3612V62.9501C0 63.5764 0.0611482 64.1485 0.209613 64.6736C0.320818 65.0666 0.48434 65.4331 0.706939 65.7534C1.03943 66.2361 1.5042 66.5927 2.02562 66.8026C2.54891 67.0149 3.12677 67.0993 3.76597 67.0999H15.6866C16.255 67.0999 16.774 67.0323 17.2506 66.8687C17.6072 66.7464 17.9399 66.566 18.2304 66.3209C18.6686 65.9544 18.9925 65.4424 19.1827 64.8677C19.3756 64.2913 19.452 63.6544 19.4525 62.9501V51.3739H32.1123V62.9501C32.1123 63.5826 32.1798 64.1634 32.3437 64.6956C32.4662 65.0939 32.6463 65.464 32.8869 65.7825C33.067 66.0213 33.2796 66.2293 33.5156 66.4008C33.8697 66.6583 34.2724 66.8328 34.7069 66.9425C35.1419 67.0522 35.6112 67.0997 36.1215 67.0999H48.3663C48.935 67.0999 49.4539 67.0323 49.9306 66.8687C50.287 66.7464 50.6198 66.566 50.9104 66.3209C51.3484 65.9544 51.6724 65.4425 51.8627 64.8679C52.0555 64.2913 52.1319 63.6544 52.1325 62.9501V39.3612C52.1325 37.4802 51.877 35.3965 51.3482 32.9978C50.8193 30.5992 50.0171 27.8831 48.9135 24.7299" fill="white"/>
</svg>
