<svg width="57" height="71" viewBox="0 0 57 71" fill="none" xmlns="http://www.w3.org/2000/svg">
<path d="M37.1907 36.2612L18.2216 32.4191C15.4348 31.8829 13.6368 30.6321 13.6368 26.4325V19.1057C13.6368 14.9061 16.8732 11.8682 21.9077 11.8682H40.9267H41.8654V10.9746H40.9267H21.9077C16.3339 10.9746 12.7377 14.3699 12.7377 19.1057V26.4325C12.7377 31.347 14.8954 32.6872 18.042 33.3125L37.0109 37.1549C40.3371 37.8696 42.4947 39.3885 42.4947 45.0177V50.2002C42.4947 54.9358 38.9887 58.3311 33.4149 58.3311H11.9684H11.0297V59.2247H11.9684H33.4149C39.5281 59.2247 43.3936 55.4719 43.3936 50.2002V45.0177C43.3936 38.763 40.7867 36.9759 37.1907 36.2612" fill="white"/>
<g filter="url(#filter0_d_2_3581)">
<path d="M53.1929 51.5405C53.1929 61.7267 46.1808 67.2665 34.5835 67.2665H6.17511C3.92758 67.2665 2.93878 66.2836 2.93878 64.0497V53.5957C2.93878 51.3618 3.92758 50.3788 6.17511 50.3788H30.3583C31.8866 50.3788 32.6958 49.2174 32.6958 47.7876C32.6958 45.7325 31.8866 44.9284 30.3583 44.7497L16.8733 42.8733C8.42265 41.6225 2.93878 38.0484 2.93878 28.0409V18.659C2.93878 8.47281 9.861 2.93301 21.548 2.93301H46.72C48.9676 2.93301 49.9566 3.91599 49.9566 6.14961V16.7824C49.9566 19.0164 48.9676 19.9992 46.72 19.9992H25.7734C24.2451 19.9992 23.346 21.0716 23.346 22.6799C23.346 24.2882 24.2451 25.3603 25.7734 25.539L39.1684 27.326C47.6191 28.5769 53.1929 32.1509 53.1929 42.1586V51.5405ZM50.9372 31.774C49.6038 30.1937 47.8972 29.0243 45.9328 28.1697C43.9664 27.3138 41.7389 26.7637 39.3068 26.4032L39.2934 26.4013L25.8984 24.6143L25.8829 24.6124C25.5981 24.5791 25.3649 24.5071 25.1738 24.4109C24.888 24.2645 24.688 24.0707 24.5346 23.7964C24.3836 23.5221 24.2849 23.1547 24.2847 22.6799C24.2847 22.3639 24.3292 22.0939 24.4022 21.8742C24.5138 21.543 24.6761 21.3299 24.8822 21.1804C24.9869 21.1058 25.1064 21.0461 25.252 21.0023C25.3975 20.959 25.5696 20.9322 25.7734 20.9322H46.72C47.3504 20.9322 47.9258 20.8649 48.4542 20.7013C48.8495 20.5787 49.2183 20.3985 49.5404 20.1533C50.0262 19.7869 50.3853 19.2748 50.5962 18.7001C50.81 18.1237 50.8947 17.4869 50.8953 16.7824V6.14961C50.8953 5.52325 50.8275 4.9512 50.6629 4.42623C50.5394 4.03334 50.3584 3.66676 50.1116 3.34664C49.7428 2.86375 49.2275 2.50693 48.6496 2.2971C48.0695 2.08479 47.4289 2.0004 46.72 2H21.548C18.5518 2 15.8388 2.35432 13.442 3.06341C11.6448 3.59545 10.0254 4.32795 8.60727 5.26138C6.47968 6.65965 4.80999 8.51676 3.69164 10.7742C2.571 13.0315 1.99962 15.6771 2.00004 18.659V28.0409C2.00004 30.6268 2.35364 32.8368 3.04559 34.724C3.56398 36.1386 4.27449 37.3692 5.15482 38.422C6.4753 40.0031 8.1694 41.1738 10.1245 42.029C12.0814 42.8853 14.3027 43.4356 16.7348 43.7961L16.7431 43.7977L30.2281 45.6741L30.2486 45.6767C30.5596 45.713 30.8005 45.7785 30.9766 45.8594C31.1095 45.9203 31.2077 45.9875 31.2918 46.0678C31.4157 46.1884 31.5219 46.3456 31.611 46.6197C31.6986 46.8917 31.7574 47.278 31.757 47.788C31.757 48.0582 31.7184 48.3039 31.6512 48.512C31.5492 48.8257 31.3922 49.0474 31.1975 49.1965C31.0988 49.2717 30.9879 49.3312 30.8521 49.3752C30.7165 49.4187 30.5552 49.4461 30.3583 49.4463H6.17506C5.54486 49.4463 4.96953 49.5139 4.44113 49.6775C4.04581 49.8 3.67678 49.9802 3.3547 50.2252C2.86906 50.5918 2.51005 51.1039 2.29894 51.6783C2.08532 52.2549 2.00063 52.8918 2 53.5961V64.0502C2 64.6765 2.0678 65.2486 2.23239 65.7738C2.35568 66.1667 2.53695 66.5334 2.78373 66.8536C3.15256 67.3362 3.66761 67.6928 4.24565 67.9027C4.82579 68.115 5.46643 68.1994 6.17506 68.2H34.5834C37.5577 68.2 40.2598 67.8454 42.6521 67.1364C44.446 66.6043 46.0656 65.872 47.4862 64.939C49.6173 63.5414 51.296 61.6857 52.4235 59.4285C53.5527 57.1714 54.132 54.5246 54.1316 51.541V42.1591C54.1316 39.5717 53.7718 37.3601 53.0706 35.4723C52.5451 34.057 51.8261 32.8265 50.9372 31.7745" fill="white"/>
</g>
<defs>
<filter id="filter0_d_2_3581" x="0" y="0" width="56.1316" height="70.2" filterUnits="userSpaceOnUse" color-interpolation-filters="sRGB">
<feFlood flood-opacity="0" result="BackgroundImageFix"/>
<feColorMatrix in="SourceAlpha" type="matrix" values="0 0 0 0 0 0 0 0 0 0 0 0 0 0 0 0 0 0 127 0" result="hardAlpha"/>
<feOffset/>
<feGaussianBlur stdDeviation="1"/>
<feComposite in2="hardAlpha" operator="out"/>
<feColorMatrix type="matrix" values="0 0 0 0 1 0 0 0 0 1 0 0 0 0 1 0 0 0 1 0"/>
<feBlend mode="normal" in2="BackgroundImageFix" result="effect1_dropShadow_2_3581"/>
<feBlend mode="normal" in="SourceGraphic" in2="effect1_dropShadow_2_3581" result="shape"/>
</filter>
</defs>
</svg>
