<svg width="53" height="67" viewBox="0 0 53 67" fill="none" xmlns="http://www.w3.org/2000/svg">
<path d="M34.1694 33.9895H35.1469V33.0959H34.1694H12.1177V10.6684H41.7521H42.7296V9.77502H41.7521H11.1816V58.0254H41.7521H42.7296V57.1318H41.7521H13.0952H12.1177V56.1988V33.9895H34.1694Z" fill="white"/>
<path d="M40.202 25.5009C42.5422 25.5009 43.5723 26.4837 43.5723 28.7178V38.2785C43.5723 40.5121 42.5422 41.4951 40.202 41.4951H21.9472V49.1794H47.7847C50.1251 49.1794 51.155 50.1622 51.155 52.3963V62.8504C51.155 65.0843 50.1251 66.067 47.7847 66.067H4.34755C2.00738 66.067 0.977514 65.0843 0.977514 62.8504V4.94989C0.977514 2.71604 2.00738 1.73306 4.34755 1.73306H47.7847C50.1251 1.73306 51.155 2.71604 51.155 4.94989V15.4042C51.155 17.6379 50.1251 18.6207 47.7847 18.6207H21.9472V25.5009H40.202ZM47.7847 19.5537C48.441 19.5537 49.0403 19.4863 49.5903 19.3227C50.002 19.2002 50.3862 19.02 50.7216 18.7749C51.2273 18.4083 51.6014 17.8962 51.821 17.3219C52.0437 16.7453 52.1318 16.1086 52.1325 15.4042V4.94989C52.1325 4.32332 52.0619 3.75149 51.8905 3.2263C51.7619 2.8336 51.5734 2.46682 51.3162 2.1467C50.9321 1.6638 50.3958 1.30719 49.7939 1.09737C49.19 0.884845 48.5229 0.800671 47.7847 0.800049H4.34755C3.69131 0.800049 3.092 0.867429 2.54198 1.03102C2.13033 1.15376 1.74629 1.33373 1.41088 1.57921C0.904969 1.94579 0.531119 2.45771 0.311292 3.03223C0.0888383 3.60863 0.000652543 4.24537 0 4.94989V62.8504C0 63.4768 0.0705912 64.0488 0.241983 64.5738C0.370592 64.9669 0.559138 65.3335 0.816112 65.6536C1.20018 66.1363 1.73672 66.4931 2.33843 66.7029C2.94254 66.9152 3.60964 66.9994 4.34755 67H47.7847C48.441 67 49.0403 66.9327 49.5903 66.7691C50.002 66.6465 50.3862 66.4664 50.7216 66.2211C51.2275 65.8547 51.6014 65.3426 51.821 64.7683C52.0437 64.1915 52.1318 63.5547 52.1325 62.8504V52.3963C52.1325 51.7697 52.0619 51.1979 51.8905 50.6727C51.7619 50.2798 51.5734 49.913 51.3162 49.5929C50.9321 49.1102 50.3958 48.7534 49.7939 48.5437C49.19 48.3312 48.5229 48.247 47.7847 48.2464H22.9247V42.4281H40.202C40.8583 42.4281 41.4574 42.3605 42.0076 42.1969C42.4192 42.0746 42.8035 41.8942 43.1389 41.6492C43.6446 41.2826 44.0185 40.7705 44.2383 40.1961C44.4607 39.6198 44.5492 38.9828 44.5498 38.2785V28.7178C44.5498 28.0912 44.479 27.5192 44.3076 26.9942C44.1792 26.6013 43.9904 26.2345 43.7335 25.9144C43.3494 25.4317 42.8131 25.0749 42.2111 24.8652C41.6073 24.6527 40.9399 24.5685 40.202 24.5679H22.9247V19.5537H47.7847Z" fill="white"/>
</svg>
